<svg width="78" height="38" viewBox="0 0 78 38" fill="none" xmlns="http://www.w3.org/2000/svg">
<g clip-path="url(#clip0_10_77)">
<path d="M62.6002 1.36876C62.7432 1.36876 62.9291 1.39727 63.1578 1.5969C65.3313 3.55037 66.5038 10.6798 64.7164 15.2855C63.7584 17.7808 62.1569 19.0355 59.9692 19.0355C59.0255 19.0355 58.1676 18.95 57.4097 18.7646C55.9941 18.4367 54.8359 17.4385 54.2068 16.0412C53.5205 14.5155 53.5919 12.7474 54.3927 11.293C58.4249 3.94962 61.3419 1.34024 62.6002 1.34024V1.36876ZM57.8959 29.7583L57.4669 29.9579L56.1085 36.9733C55.9941 37.5579 55.4794 37.9856 54.936 37.9856H54.4213C53.8636 37.9856 53.3775 37.6007 53.2631 37.0731L52.0906 31.4551H48.3443C37.9491 31.4551 22.6207 27.3628 14.4132 24.9245L13.8127 24.7391L13.4266 25.2382C12.2827 26.7354 10.624 27.7192 8.87957 27.9474L8.32191 28.0187L5.04749 37.0446C4.8759 37.5151 4.41834 37.8288 3.91788 37.8288C3.28873 37.8288 2.75968 37.344 2.71678 36.7166L1.88745 24.4539L1.80166 24.2828C1.3298 23.3845 1.02952 22.0157 1.02952 20.8322C1.02952 19.2352 1.57288 17.7237 2.58809 16.4832L3.04565 15.9271L0.157295 12.2055C0.0429043 12.0487 -0.0142909 11.8633 0.0143067 11.6637C0.0286055 11.5068 0.1001 11.3643 0.200191 11.2644L0.357478 11.1361L0.486167 11.0933C0.786442 10.9793 1.12961 11.0791 1.3298 11.3357L4.34685 15.2712L5.00459 15.0003C5.77673 14.6723 6.70615 14.6723 7.74996 14.6723H51.3899C51.7045 14.6723 52.305 14.6295 52.877 14.5582C52.9628 15.1143 53.1201 15.6562 53.3489 16.1695C54.1353 17.9091 55.6081 19.1639 57.3954 19.5774C58.1962 19.7628 59.0827 19.8626 60.0407 19.8626C62.5859 19.8626 64.5877 18.4082 65.7316 15.7845C65.2455 23.0708 62.7289 27.5624 57.9245 29.7725L57.8959 29.7583ZM76.9276 3.37926L66.7754 10.1665C66.7897 6.61604 65.7888 3.02279 64.0444 1.45431C63.5582 1.01228 62.9577 0.784141 62.3285 0.784141C60.5841 0.784141 58.4535 2.65206 55.9941 6.34512C55.9941 6.25956 55.9941 6.17401 55.9941 6.08846C55.9941 2.62354 58.7681 0.0141602 62.4429 0.0141602H75.9839C77.0992 0.0141602 77.9714 0.7984 78.0143 1.8393C78.0286 2.43817 77.7569 2.83742 76.9419 3.39352L76.9276 3.37926Z" fill="#9B969F"/>
</g>
<defs>
<clipPath id="clip0_10_77">
<rect width="78" height="38" fill="white"/>
</clipPath>
</defs>
</svg>
